<svg xmlns="http://www.w3.org/2000/svg" width="600" height="400" viewBox="0 0 600 400"><rect width="100%" height="100%" fill="#4A5D3F"/><path fill="#F6F1E7" d="M129.27 200.485h6.14q2.25 0 3.93-.56 1.68-.57 2.79-1.62t1.66-2.56.55-3.37q0-1.77-.55-3.2-.55-1.44-1.64-2.45-1.1-1-2.78-1.54-1.68-.53-3.96-.53h-6.14zm-8.2-22.17h14.34q4.42 0 7.65 1.03 3.23 1.04 5.34 2.9 2.1 1.86 3.12 4.45 1.03 2.6 1.03 5.68 0 3.2-1.07 5.87t-3.2 4.59q-2.14 1.92-5.36 2.99-3.21 1.07-7.51 1.07h-6.14v15.52h-8.2zm44.1-1.22v17.38q1.83-1.71 4.03-2.77 2.2-1.07 5.15-1.07 2.57 0 4.55.87t3.31 2.44q1.32 1.57 2.01 3.75t.69 4.8v19.92h-7.54v-19.92q0-2.86-1.31-4.43-1.31-1.58-3.99-1.58-1.96 0-3.66.89-1.71.88-3.24 2.41v22.63h-7.53v-45.32zm40.72 13.54q3.48 0 6.33 1.13t4.88 3.2 3.13 5.06q1.09 2.99 1.09 6.68 0 3.72-1.09 6.71-1.1 2.99-3.13 5.1-2.03 2.1-4.88 3.23t-6.33 1.13q-3.51 0-6.37-1.13-2.87-1.13-4.9-3.23-2.03-2.11-3.14-5.1t-1.11-6.71q0-3.69 1.11-6.68t3.14-5.06 4.9-3.2q2.86-1.13 6.37-1.13m0 26.44q3.9 0 5.78-2.62t1.88-7.69q0-5.06-1.88-7.71-1.88-2.66-5.78-2.66-3.96 0-5.87 2.67t-1.91 7.7q0 5.04 1.91 7.67 1.91 2.64 5.87 2.64m31.63 5.83q-4.09 0-6.27-2.3-2.18-2.31-2.18-6.36v-17.48h-3.2q-.61 0-1.04-.4-.43-.39-.43-1.19v-2.99l5.04-.82 1.58-8.54q.16-.61.58-.94.43-.34 1.1-.34h3.9v9.85h8.36v5.37h-8.36v16.96q0 1.46.72 2.28.72.83 1.97.83.7 0 1.17-.17.48-.17.83-.35t.62-.35q.28-.17.55-.17.34 0 .55.17t.46.5l2.25 3.66q-1.64 1.37-3.78 2.08-2.13.7-4.42.7m26.11-32.27q3.47 0 6.33 1.13 2.85 1.13 4.88 3.2 2.02 2.07 3.12 5.06t1.1 6.68q0 3.72-1.1 6.71t-3.12 5.1q-2.03 2.1-4.88 3.23-2.86 1.13-6.33 1.13-3.51 0-6.38-1.13-2.86-1.13-4.89-3.23-2.03-2.11-3.14-5.1-1.12-2.99-1.12-6.71 0-3.69 1.12-6.68 1.11-2.99 3.14-5.06t4.89-3.2q2.87-1.13 6.38-1.13m0 26.44q3.9 0 5.78-2.62 1.87-2.62 1.87-7.69 0-5.06-1.87-7.71-1.88-2.66-5.78-2.66-3.97 0-5.87 2.67-1.91 2.67-1.91 7.7 0 5.04 1.91 7.67 1.9 2.64 5.87 2.64m52.55-2.74v-5.28q-3.26.15-5.49.57-2.23.41-3.57 1.05t-1.92 1.49q-.58.86-.58 1.86 0 1.98 1.17 2.84 1.18.85 3.07.85 2.32 0 4.01-.84 1.69-.83 3.31-2.54m-15.92-16.44-1.34-2.41q5.39-4.94 12.99-4.94 2.74 0 4.91.9 2.16.9 3.66 2.5 1.49 1.6 2.27 3.83.78 2.22.78 4.88v19.76h-3.42q-1.06 0-1.64-.32t-.92-1.3l-.67-2.25q-1.19 1.06-2.32 1.87t-2.35 1.36-2.6.84q-1.39.29-3.07.29-1.98 0-3.66-.54-1.68-.53-2.9-1.6-1.22-1.06-1.89-2.65t-.67-3.69q0-1.19.4-2.36.39-1.18 1.29-2.25.9-1.06 2.34-2.01 1.43-.94 3.52-1.65 2.09-.7 4.86-1.14 2.78-.44 6.35-.53v-1.83q0-3.15-1.34-4.66-1.35-1.51-3.88-1.51-1.83 0-3.03.43-1.21.43-2.12.96-.92.54-1.66.96-.75.43-1.67.43-.79 0-1.34-.41t-.88-.96m1.19-20.07h7.04q1.25 0 1.86.41t1.04 1.21l4.36 7.41h-4.3q-.85 0-1.39-.23-.53-.23-1.08-.84zm66.24 13.3h5.95l-12.41 31.29h-6.83l-12.42-31.29h6.22q.86 0 1.42.39.57.4.75 1.01l6.04 16.71q.49 1.47.85 2.87.37 1.4.64 2.81.31-1.41.67-2.81.37-1.4.89-2.87l6.16-16.71q.21-.61.76-1.01.55-.39 1.31-.39m15.89 12.04h14.22q0-1.46-.41-2.76-.42-1.29-1.24-2.27-.82-.97-2.09-1.54-1.27-.56-2.94-.56-3.27 0-5.14 1.86-1.88 1.86-2.4 5.27m19.22 4.55h-19.37q.18 2.41.86 4.16.67 1.76 1.76 2.9 1.1 1.14 2.61 1.71 1.51.56 3.34.56t3.16-.42q1.33-.43 2.32-.95t1.74-.95q.74-.42 1.44-.42.95 0 1.41.7l2.16 2.74q-1.25 1.47-2.8 2.46-1.56.99-3.25 1.58-1.69.6-3.45.84-1.75.25-3.4.25-3.26 0-6.07-1.09-2.8-1.08-4.88-3.2-2.07-2.12-3.26-5.24-1.19-3.13-1.19-7.25 0-3.2 1.04-6.02 1.03-2.82 2.97-4.91t4.73-3.31 6.29-1.22q2.96 0 5.46.94 2.51.95 4.3 2.76 1.8 1.82 2.83 4.46 1.02 2.64 1.02 6.02 0 1.71-.37 2.3-.36.6-1.4.6m13.94-15.22.52 2.47q.94-.95 1.99-1.75 1.06-.81 2.23-1.38 1.17-.56 2.52-.88 1.34-.32 2.92-.32 2.57 0 4.55.87t3.31 2.44q1.32 1.57 2.01 3.75t.69 4.8v19.92h-7.54v-19.92q0-2.86-1.31-4.43-1.31-1.58-3.99-1.58-1.96 0-3.66.89-1.71.88-3.24 2.41v22.63h-7.53v-31.29h4.61q1.46 0 1.92 1.37m28.12-1.37h7.56v31.29h-7.56zm8.6-9.12q0 .97-.4 1.83-.39.85-1.05 1.49t-1.54 1.02-1.89.38q-.98 0-1.85-.38t-1.51-1.02-1.02-1.49q-.38-.86-.38-1.83 0-1.01.38-1.89.38-.89 1.02-1.53t1.51-1.02 1.85-.38q1.01 0 1.89.38t1.54 1.02 1.05 1.53q.4.88.4 1.89m13.3 11.01.45 3.54q1.47-2.81 3.48-4.41t4.76-1.6q2.17 0 3.48.94l-.49 5.65q-.15.54-.44.77t-.78.23q-.46 0-1.36-.15t-1.75-.15q-1.25 0-2.23.36-.97.37-1.75 1.06-.78.68-1.38 1.66-.59.97-1.11 2.22v19.28h-7.53v-31.29h4.42q1.16 0 1.62.41.45.41.61 1.48"/></svg>